<mxfile host="Electron" modified="2024-06-30T16:17:34.669Z" agent="Mozilla/5.0 (X11; Linux x86_64) AppleWebKit/537.36 (KHTML, like Gecko) draw.io/24.5.3 Chrome/124.0.6367.207 Electron/30.0.6 Safari/537.36" etag="zimkKv5JlHbK3fPwcacw" version="24.5.3" type="device">
  <diagram name="Vision" id="7_jsQUVcg60ziJX6l3Xl">
    <mxGraphModel dx="1420" dy="858" grid="1" gridSize="10" guides="1" tooltips="1" connect="1" arrows="1" fold="1" page="1" pageScale="1" pageWidth="1169" pageHeight="827" math="0" shadow="0">
      <root>
        <mxCell id="0" />
        <mxCell id="1" value="Boxes" style="" parent="0" />
        <mxCell id="BW7frF_x7rZ1pj5Z0zDM-1" value="TOGAF - Architecture Vision" style="rounded=0;whiteSpace=wrap;html=1;fillColor=none;strokeWidth=3;shadow=0;connectable=0;allowArrows=0;fontSize=20;fontStyle=1;align=center;spacing=0;movable=0;expand=0;resizable=0;editable=0;" vertex="1" parent="1">
          <mxGeometry x="10" y="10" width="430" height="50" as="geometry" />
        </mxCell>
        <mxCell id="BW7frF_x7rZ1pj5Z0zDM-2" value="" style="rounded=0;whiteSpace=wrap;html=1;fillColor=none;strokeWidth=3;shadow=0;connectable=0;allowArrows=0;fontSize=16;align=right;spacing=0;spacingLeft=0;spacingRight=33;movable=0;expand=0;resizable=0;" vertex="1" parent="1">
          <mxGeometry x="1040" y="10" width="90" height="50" as="geometry" />
        </mxCell>
        <mxCell id="BW7frF_x7rZ1pj5Z0zDM-3" value="" style="rounded=0;whiteSpace=wrap;html=1;fillColor=none;strokeWidth=3;shadow=0;connectable=0;allowArrows=0;fontSize=16;spacing=0;align=right;spacingRight=35;spacingLeft=0;movable=0;expand=0;resizable=0;" vertex="1" parent="1">
          <mxGeometry x="880" y="10" width="160" height="50" as="geometry" />
        </mxCell>
        <mxCell id="BW7frF_x7rZ1pj5Z0zDM-4" value="" style="rounded=0;whiteSpace=wrap;html=1;fillColor=none;strokeWidth=3;shadow=0;connectable=0;allowArrows=0;fontSize=20;spacing=0;spacingLeft=10;align=center;movable=0;expand=0;resizable=0;spacingRight=10;" vertex="1" parent="1">
          <mxGeometry x="440" y="10" width="440" height="50" as="geometry" />
        </mxCell>
        <mxCell id="BW7frF_x7rZ1pj5Z0zDM-5" value="" style="rounded=0;whiteSpace=wrap;html=1;fillColor=none;strokeWidth=3;shadow=0;connectable=0;allowArrows=0;verticalAlign=top;align=left;fontSize=16;spacing=0;spacingTop=25;spacingLeft=5;spacingBottom=5;spacingRight=5;movable=0;expand=0;resizable=0;" vertex="1" parent="1">
          <mxGeometry x="10" y="60" width="360" height="200" as="geometry" />
        </mxCell>
        <mxCell id="BW7frF_x7rZ1pj5Z0zDM-6" value="" style="rounded=0;whiteSpace=wrap;html=1;fillColor=none;strokeWidth=3;shadow=0;connectable=0;allowArrows=0;verticalAlign=top;align=left;fontSize=16;spacing=0;spacingTop=25;spacingLeft=5;spacingBottom=5;spacingRight=5;movable=0;expand=0;resizable=0;" vertex="1" parent="1">
          <mxGeometry x="370" y="60" width="400" height="200" as="geometry" />
        </mxCell>
        <mxCell id="BW7frF_x7rZ1pj5Z0zDM-7" value="" style="rounded=0;whiteSpace=wrap;html=1;fillColor=none;strokeWidth=3;shadow=0;connectable=0;allowArrows=0;verticalAlign=top;align=left;fontSize=16;spacing=0;spacingTop=25;spacingLeft=5;spacingBottom=5;spacingRight=5;movable=0;expand=0;resizable=0;" vertex="1" parent="1">
          <mxGeometry x="770" y="60" width="360" height="200" as="geometry" />
        </mxCell>
        <mxCell id="BW7frF_x7rZ1pj5Z0zDM-8" value="" style="rounded=0;whiteSpace=wrap;html=1;fillColor=none;strokeWidth=3;shadow=0;connectable=0;allowArrows=0;verticalAlign=top;align=left;fontSize=16;spacing=0;spacingTop=25;spacingLeft=5;spacingBottom=5;spacingRight=5;movable=0;expand=0;resizable=0;" vertex="1" parent="1">
          <mxGeometry x="10" y="260" width="360" height="200" as="geometry" />
        </mxCell>
        <mxCell id="BW7frF_x7rZ1pj5Z0zDM-9" value="" style="rounded=0;whiteSpace=wrap;html=1;fillColor=none;strokeWidth=3;shadow=0;connectable=0;allowArrows=0;verticalAlign=top;align=left;fontSize=16;spacing=0;spacingTop=25;spacingLeft=5;spacingBottom=5;spacingRight=5;movable=0;expand=0;resizable=0;" vertex="1" parent="1">
          <mxGeometry x="10" y="460" width="360" height="200" as="geometry" />
        </mxCell>
        <mxCell id="BW7frF_x7rZ1pj5Z0zDM-10" value="" style="rounded=0;whiteSpace=wrap;html=1;fillColor=none;strokeWidth=3;shadow=0;connectable=0;allowArrows=0;verticalAlign=top;align=left;fontSize=16;spacing=0;spacingTop=25;spacingLeft=5;spacingBottom=5;spacingRight=5;movable=0;expand=0;resizable=0;" vertex="1" parent="1">
          <mxGeometry x="370" y="260" width="400" height="400" as="geometry" />
        </mxCell>
        <mxCell id="BW7frF_x7rZ1pj5Z0zDM-11" value="" style="rounded=0;whiteSpace=wrap;html=1;fillColor=none;strokeWidth=3;shadow=0;connectable=0;allowArrows=0;verticalAlign=top;align=left;fontSize=16;spacing=0;spacingTop=25;spacingLeft=5;spacingBottom=5;spacingRight=5;movable=0;expand=0;resizable=0;" vertex="1" parent="1">
          <mxGeometry x="370" y="660" width="400" height="160" as="geometry" />
        </mxCell>
        <mxCell id="BW7frF_x7rZ1pj5Z0zDM-12" value="" style="rounded=0;whiteSpace=wrap;html=1;fillColor=none;strokeWidth=3;shadow=0;connectable=0;allowArrows=0;verticalAlign=top;align=left;fontSize=16;spacing=0;spacingTop=25;spacingLeft=5;spacingBottom=5;spacingRight=5;movable=0;expand=0;resizable=0;" vertex="1" parent="1">
          <mxGeometry x="10" y="660" width="360" height="160" as="geometry" />
        </mxCell>
        <mxCell id="BW7frF_x7rZ1pj5Z0zDM-13" value="" style="rounded=0;whiteSpace=wrap;html=1;fillColor=none;strokeWidth=3;shadow=0;connectable=0;allowArrows=0;verticalAlign=top;align=left;fontSize=16;spacing=0;spacingTop=25;spacingLeft=5;spacingBottom=5;spacingRight=5;movable=0;expand=0;resizable=0;" vertex="1" parent="1">
          <mxGeometry x="770" y="260" width="360" height="560" as="geometry" />
        </mxCell>
        <mxCell id="BW7frF_x7rZ1pj5Z0zDM-16" value="Stakeholders" style="rounded=0;align=left;fontSize=18;fillColor=none;strokeColor=none;spacing=0;spacingLeft=5;spacingRight=5;html=1;whiteSpace=wrap;labelBackgroundColor=none;fontStyle=1;verticalAlign=top;spacingTop=0;spacingBottom=0;allowArrows=0;movable=0;connectable=0;expand=0;resizable=0;editable=0;" vertex="1" parent="1">
          <mxGeometry x="10" y="60" width="360" height="30" as="geometry" />
        </mxCell>
        <mxCell id="BW7frF_x7rZ1pj5Z0zDM-17" value="Drivers" style="rounded=0;align=left;fontSize=18;fillColor=none;strokeColor=none;spacing=0;spacingLeft=5;spacingRight=5;html=1;whiteSpace=wrap;labelBackgroundColor=none;fontStyle=1;verticalAlign=top;spacingTop=0;spacingBottom=0;allowArrows=0;movable=0;connectable=0;expand=0;resizable=0;editable=0;" vertex="1" parent="1">
          <mxGeometry x="370" y="60" width="400" height="30" as="geometry" />
        </mxCell>
        <mxCell id="BW7frF_x7rZ1pj5Z0zDM-19" value="Objective&lt;span style=&quot;background-color: initial;&quot;&gt;&amp;nbsp;&amp;amp; Goals&lt;/span&gt;" style="rounded=0;align=left;fontSize=18;fillColor=none;strokeColor=none;spacing=0;spacingLeft=5;spacingRight=5;html=1;whiteSpace=wrap;labelBackgroundColor=none;fontStyle=1;verticalAlign=top;spacingTop=0;spacingBottom=0;allowArrows=0;movable=1;connectable=0;expand=0;resizable=1;editable=0;rotatable=1;deletable=1;locked=0;" vertex="1" parent="1">
          <mxGeometry x="770" y="60" width="360" height="30" as="geometry" />
        </mxCell>
        <mxCell id="BW7frF_x7rZ1pj5Z0zDM-22" value="" style="sketch=0;pointerEvents=1;shadow=0;dashed=0;html=1;strokeColor=none;fillColor=#000000;labelPosition=center;verticalLabelPosition=bottom;verticalAlign=top;outlineConnect=0;align=center;shape=mxgraph.office.concepts.calendar;allowArrows=0;movable=0;connectable=0;expand=0;resizable=0;" vertex="1" parent="1">
          <mxGeometry x="1010" y="25" width="20" height="20" as="geometry" />
        </mxCell>
        <mxCell id="BW7frF_x7rZ1pj5Z0zDM-31" value="Principles" style="rounded=0;align=left;fontSize=18;fillColor=none;strokeColor=none;spacing=0;spacingLeft=5;spacingRight=5;html=1;whiteSpace=wrap;labelBackgroundColor=none;fontStyle=1;verticalAlign=top;spacingTop=0;spacingBottom=0;allowArrows=0;movable=0;connectable=0;expand=0;resizable=0;editable=0;" vertex="1" parent="1">
          <mxGeometry x="10" y="260" width="360" height="30" as="geometry" />
        </mxCell>
        <mxCell id="BW7frF_x7rZ1pj5Z0zDM-32" value="Constraints" style="rounded=0;align=left;fontSize=18;fillColor=none;strokeColor=none;spacing=0;spacingLeft=5;spacingRight=5;html=1;whiteSpace=wrap;labelBackgroundColor=none;fontStyle=1;verticalAlign=top;spacingTop=0;spacingBottom=0;allowArrows=0;movable=0;connectable=0;expand=0;resizable=0;editable=0;" vertex="1" parent="1">
          <mxGeometry x="10" y="460" width="360" height="30" as="geometry" />
        </mxCell>
        <mxCell id="BW7frF_x7rZ1pj5Z0zDM-33" value="Vision" style="rounded=0;align=left;fontSize=18;fillColor=none;strokeColor=none;spacing=0;spacingLeft=5;spacingRight=5;html=1;whiteSpace=wrap;labelBackgroundColor=none;fontStyle=1;verticalAlign=top;spacingTop=0;spacingBottom=0;allowArrows=0;movable=0;connectable=0;expand=0;resizable=0;editable=0;" vertex="1" parent="1">
          <mxGeometry x="770" y="260" width="360" height="30" as="geometry" />
        </mxCell>
        <mxCell id="BW7frF_x7rZ1pj5Z0zDM-34" value="Scope" style="rounded=0;align=left;fontSize=18;fillColor=none;strokeColor=none;spacing=0;spacingLeft=5;spacingRight=5;html=1;whiteSpace=wrap;labelBackgroundColor=none;fontStyle=1;verticalAlign=top;spacingTop=0;spacingBottom=0;allowArrows=0;movable=0;connectable=0;expand=0;resizable=0;editable=0;" vertex="1" parent="1">
          <mxGeometry x="370" y="260" width="400" height="30" as="geometry" />
        </mxCell>
        <mxCell id="BW7frF_x7rZ1pj5Z0zDM-35" value="Capabilities" style="rounded=0;align=left;fontSize=18;fillColor=none;strokeColor=none;spacing=0;spacingLeft=5;spacingRight=5;html=1;whiteSpace=wrap;labelBackgroundColor=none;fontStyle=1;verticalAlign=top;spacingTop=0;spacingBottom=0;allowArrows=0;movable=0;connectable=0;expand=0;resizable=0;editable=0;" vertex="1" parent="1">
          <mxGeometry x="10" y="660" width="360" height="30" as="geometry" />
        </mxCell>
        <mxCell id="BW7frF_x7rZ1pj5Z0zDM-36" value="Risks" style="rounded=0;align=left;fontSize=18;fillColor=none;strokeColor=none;spacing=0;spacingLeft=5;spacingRight=5;html=1;whiteSpace=wrap;labelBackgroundColor=none;fontStyle=1;verticalAlign=top;spacingTop=0;spacingBottom=0;allowArrows=0;movable=0;connectable=0;expand=0;resizable=0;editable=0;" vertex="1" parent="1">
          <mxGeometry x="370" y="660" width="390" height="30" as="geometry" />
        </mxCell>
        <mxCell id="BW7frF_x7rZ1pj5Z0zDM-39" value="" style="group;movable=0;allowArrows=0;connectable=0;expand=0;resizable=0;" vertex="1" connectable="0" parent="1">
          <mxGeometry x="1105" y="25" width="12" height="20.5" as="geometry" />
        </mxCell>
        <mxCell id="BW7frF_x7rZ1pj5Z0zDM-27" value="" style="shape=step;perimeter=stepPerimeter;whiteSpace=wrap;html=1;fixedSize=1;rotation=-90;size=2.5;container=0;connectable=0;allowArrows=0;strokeWidth=2;movable=0;expand=0;resizable=0;" vertex="1" parent="BW7frF_x7rZ1pj5Z0zDM-39">
          <mxGeometry y="12" width="12" height="5" as="geometry" />
        </mxCell>
        <mxCell id="BW7frF_x7rZ1pj5Z0zDM-26" value="" style="ellipse;whiteSpace=wrap;html=1;aspect=fixed;container=0;connectable=0;allowArrows=0;fillColor=#FFFFFF;strokeWidth=4;movable=0;expand=0;resizable=0;" vertex="1" parent="BW7frF_x7rZ1pj5Z0zDM-39">
          <mxGeometry width="12" height="12" as="geometry" />
        </mxCell>
        <mxCell id="BW7frF_x7rZ1pj5Z0zDM-43" value="&lt;p style=&quot;line-height: 100%;&quot;&gt;&lt;/p&gt;&lt;div style=&quot;font-size: 12px;&quot; class=&quot;tabs-panel is-active&quot;&gt;&lt;p style=&quot;font-size: 12px; line-height: 90%;&quot; class=&quot;license-text richtext&quot;&gt;&lt;span style=&quot;font-size: 12px;&quot;&gt;&amp;nbsp;TOGAF - Architecture Vision - Canvas &lt;/span&gt; © 2024   by  &lt;a style=&quot;font-size: 12px;&quot; href=&quot;https://github.com/tmorin&quot; rel=&quot;cc:attributionURL noopener noreferrer&quot; target=&quot;_blank&quot;&gt; Thivault Morin &lt;/a&gt; is licensed under &lt;a style=&quot;font-size: 12px;&quot; href=&quot;https://creativecommons.org/licenses/by/4.0/?ref=chooser-v1&quot; target=&quot;_blank&quot; rel=&quot;license noopener noreferrer&quot;&gt; CC BY 4.0&lt;/a&gt;&lt;/p&gt;&lt;/div&gt;&lt;p&gt;&lt;/p&gt;" style="rounded=0;whiteSpace=wrap;html=1;spacing=0;verticalAlign=middle;rotation=-90;fillColor=none;strokeColor=none;align=left;allowArrows=0;fontSize=12;expand=0;movable=0;resizable=0;editable=0;" vertex="1" parent="1">
          <mxGeometry x="878.75" y="493.75" width="532.5" height="30" as="geometry" />
        </mxCell>
        <UserObject label="&lt;p style=&quot;line-height: 100%;&quot;&gt;&lt;span style=&quot;forced-color-adjust: none;&quot; data-v-a0d4e8a8=&quot;&quot; class=&quot;icon&quot;&gt;&lt;font color=&quot;#000000&quot;&gt;&lt;img style=&quot;forced-color-adjust: none;&quot; data-v-a0d4e8a8=&quot;&quot; width=&quot;20&quot; height=&quot;20&quot; src=&quot;https://chooser-beta.creativecommons.org/img/cc-logo.f0ab4ebe.svg&quot;&gt;&amp;nbsp;&lt;img style=&quot;forced-color-adjust: none;&quot; data-v-a0d4e8a8=&quot;&quot; width=&quot;20&quot; height=&quot;20&quot; src=&quot;https://chooser-beta.creativecommons.org/img/cc-by.21b728bb.svg&quot;&gt;&lt;/font&gt;&lt;/span&gt;&lt;/p&gt;" id="BW7frF_x7rZ1pj5Z0zDM-44">
          <mxCell style="text;whiteSpace=wrap;html=1;rotation=-90;allowArrows=0;spacing=0;verticalAlign=middle;connectable=0;recursiveResize=1;expand=0;editable=0;" vertex="1" parent="1">
            <mxGeometry x="1122.5" y="782.5" width="45" height="30" as="geometry" />
          </mxCell>
        </UserObject>
        <mxCell id="BW7frF_x7rZ1pj5Z0zDM-58" value="&lt;p style=&quot;line-height: 100%;&quot;&gt;&lt;/p&gt;&lt;div class=&quot;tabs-panel is-active&quot; style=&quot;font-size: 12px;&quot;&gt;&lt;p class=&quot;license-text richtext&quot; style=&quot;font-size: 12px; line-height: 90%;&quot;&gt;Version 0.1.0&lt;br&gt;&lt;/p&gt;&lt;/div&gt;&lt;p&gt;&lt;/p&gt;" style="rounded=0;whiteSpace=wrap;html=1;spacing=0;verticalAlign=middle;rotation=-90;fillColor=none;strokeColor=none;align=right;allowArrows=0;fontSize=12;expand=0;movable=0;resizable=0;" vertex="1" parent="1">
          <mxGeometry x="1090" y="50" width="110" height="30" as="geometry" />
        </mxCell>
        <mxCell id="BW7frF_x7rZ1pj5Z0zDM-46" value="Annotations" style="" parent="0" />
        <mxCell id="BW7frF_x7rZ1pj5Z0zDM-47" value="What is the name of the initiative/project&lt;span style=&quot;background-color: initial;&quot;&gt;?&lt;/span&gt;" style="rounded=0;whiteSpace=wrap;html=1;fillColor=none;strokeWidth=3;shadow=0;connectable=0;allowArrows=0;fontSize=20;spacing=0;spacingLeft=10;align=center;movable=0;expand=0;resizable=0;spacingRight=10;strokeColor=none;" vertex="1" parent="BW7frF_x7rZ1pj5Z0zDM-46">
          <mxGeometry x="440" y="10" width="440" height="50" as="geometry" />
        </mxCell>
        <mxCell id="BW7frF_x7rZ1pj5Z0zDM-48" value="Who has concerns about this architecture work?&lt;br&gt;&lt;br&gt;Keywords: requesters, decision leaders, business units, end-users, regulatory bodies, sponsors, IT department, vendors, partners" style="rounded=0;whiteSpace=wrap;html=1;fillColor=none;strokeWidth=3;shadow=0;connectable=0;allowArrows=0;verticalAlign=top;align=left;spacing=0;spacingTop=25;spacingLeft=5;spacingBottom=5;spacingRight=5;movable=0;expand=0;resizable=0;strokeColor=none;fontSize=16;" vertex="1" parent="BW7frF_x7rZ1pj5Z0zDM-46">
          <mxGeometry x="10" y="60" width="360" height="200" as="geometry" />
        </mxCell>
        <mxCell id="BW7frF_x7rZ1pj5Z0zDM-49" value="What are the internal and external factors triggering this architecture work?&lt;br&gt;&lt;br&gt;Keywords:&amp;nbsp;audits, regulations, strategy, market trends, technological advancements, competitive pressure, business opportunities, risk management" style="rounded=0;whiteSpace=wrap;html=1;fillColor=none;strokeWidth=3;shadow=0;connectable=0;allowArrows=0;verticalAlign=top;align=left;spacing=0;spacingTop=25;spacingLeft=5;spacingBottom=5;spacingRight=5;movable=0;expand=0;resizable=0;strokeColor=none;fontSize=16;" vertex="1" parent="BW7frF_x7rZ1pj5Z0zDM-46">
          <mxGeometry x="370" y="60" width="400" height="200" as="geometry" />
        </mxCell>
        <mxCell id="BW7frF_x7rZ1pj5Z0zDM-50" value="What is the objective of this architecture work?&lt;br&gt;&lt;br&gt;Keywords:&amp;nbsp;SMART (Specific, Measurable, Achievable, Relevant, Time-bound), business goals, performance improvement, cost reduction, customer satisfaction, innovation" style="rounded=0;whiteSpace=wrap;html=1;fillColor=none;strokeWidth=3;shadow=0;connectable=0;allowArrows=0;verticalAlign=top;align=left;spacing=0;spacingTop=25;spacingLeft=5;spacingBottom=5;spacingRight=5;movable=0;expand=0;resizable=0;strokeColor=none;fontSize=16;" vertex="1" parent="BW7frF_x7rZ1pj5Z0zDM-46">
          <mxGeometry x="770" y="60" width="360" height="200" as="geometry" />
        </mxCell>
        <mxCell id="BW7frF_x7rZ1pj5Z0zDM-51" value="What are the general rules and guidelines to follow for this architecture work?&lt;div&gt;&lt;br&gt;&lt;/div&gt;&lt;div&gt;&lt;span style=&quot;background-color: initial;&quot;&gt;Keywords:&lt;/span&gt;&lt;span style=&quot;background-color: initial;&quot;&gt;&amp;nbsp;&lt;/span&gt;business principles, architecture principles, best practices, standards, policies, governance&lt;br&gt;&lt;/div&gt;" style="rounded=0;whiteSpace=wrap;html=1;fillColor=none;strokeWidth=3;shadow=0;connectable=0;allowArrows=0;verticalAlign=top;align=left;fontSize=16;spacing=0;spacingTop=25;spacingLeft=5;spacingBottom=5;spacingRight=5;movable=0;expand=0;resizable=0;strokeColor=none;" vertex="1" parent="BW7frF_x7rZ1pj5Z0zDM-46">
          <mxGeometry x="10" y="260" width="360" height="200" as="geometry" />
        </mxCell>
        <mxCell id="BW7frF_x7rZ1pj5Z0zDM-52" value="What are the limits and boundaries of this architecture work?&lt;div&gt;&lt;br&gt;&lt;/div&gt;&lt;div&gt;&lt;span style=&quot;background-color: initial;&quot;&gt;Keywords:&lt;/span&gt;&lt;span style=&quot;background-color: initial;&quot;&gt;&amp;nbsp;&lt;/span&gt;compliance, time, schedule, resources, budget, technology limitations, legacy systems&lt;br&gt;&lt;/div&gt;" style="rounded=0;whiteSpace=wrap;html=1;fillColor=none;strokeWidth=3;shadow=0;connectable=0;allowArrows=0;verticalAlign=top;align=left;fontSize=16;spacing=0;spacingTop=25;spacingLeft=5;spacingBottom=5;spacingRight=5;movable=0;expand=0;resizable=0;strokeColor=none;" vertex="1" parent="BW7frF_x7rZ1pj5Z0zDM-46">
          <mxGeometry x="10" y="460" width="360" height="200" as="geometry" />
        </mxCell>
        <mxCell id="BW7frF_x7rZ1pj5Z0zDM-53" value="What is inside and outside of this architecture work?&lt;div&gt;&lt;br&gt;&lt;/div&gt;&lt;div&gt;&lt;span style=&quot;background-color: initial;&quot;&gt;Keywords:&lt;/span&gt;&lt;span style=&quot;background-color: initial;&quot;&gt;&amp;nbsp;&lt;/span&gt;breadth, depth, time period, architecture domains, inclusions, exclusions, boundaries&lt;br&gt;&lt;/div&gt;" style="rounded=0;whiteSpace=wrap;html=1;fillColor=none;strokeWidth=3;shadow=0;connectable=0;allowArrows=0;verticalAlign=top;align=left;fontSize=16;spacing=0;spacingTop=25;spacingLeft=5;spacingBottom=5;spacingRight=5;movable=0;expand=0;resizable=0;strokeColor=none;" vertex="1" parent="BW7frF_x7rZ1pj5Z0zDM-46">
          <mxGeometry x="370" y="260" width="400" height="400" as="geometry" />
        </mxCell>
        <mxCell id="BW7frF_x7rZ1pj5Z0zDM-54" value="What are the main risks that could prevent the completion of this architecture work?&lt;div&gt;&lt;br&gt;&lt;/div&gt;&lt;div&gt;&lt;span style=&quot;background-color: initial;&quot;&gt;Keywords:&lt;/span&gt;&lt;span style=&quot;background-color: initial;&quot;&gt;&amp;nbsp;&lt;/span&gt;mitigations, threats, vulnerabilities, impact, probability, risk management, contingency plans&lt;br&gt;&lt;/div&gt;" style="rounded=0;whiteSpace=wrap;html=1;fillColor=none;strokeWidth=3;shadow=0;connectable=0;allowArrows=0;verticalAlign=top;align=left;fontSize=16;spacing=0;spacingTop=25;spacingLeft=5;spacingBottom=5;spacingRight=5;movable=0;expand=0;resizable=0;strokeColor=none;" vertex="1" parent="BW7frF_x7rZ1pj5Z0zDM-46">
          <mxGeometry x="370" y="660" width="400" height="160" as="geometry" />
        </mxCell>
        <mxCell id="BW7frF_x7rZ1pj5Z0zDM-55" value="What are the expected capabilities to develop and consume the outcomes of this architecture work?&lt;div&gt;&lt;br&gt;&lt;/div&gt;&lt;div&gt;&lt;span style=&quot;background-color: initial;&quot;&gt;Keywords:&lt;/span&gt;&lt;span style=&quot;background-color: initial;&quot;&gt;&amp;nbsp;&lt;/span&gt;skills, experts, training, tools, methodologies, frameworks, support&lt;br&gt;&lt;/div&gt;" style="rounded=0;whiteSpace=wrap;html=1;fillColor=none;strokeWidth=3;shadow=0;connectable=0;allowArrows=0;verticalAlign=top;align=left;fontSize=16;spacing=0;spacingTop=25;spacingLeft=5;spacingBottom=5;spacingRight=5;movable=0;expand=0;resizable=0;strokeColor=none;" vertex="1" parent="BW7frF_x7rZ1pj5Z0zDM-46">
          <mxGeometry x="10" y="660" width="360" height="160" as="geometry" />
        </mxCell>
        <mxCell id="BW7frF_x7rZ1pj5Z0zDM-56" value="What is the high-level description of this architecture work?&lt;div&gt;&lt;br&gt;&lt;/div&gt;&lt;div&gt;&lt;span style=&quot;background-color: initial;&quot;&gt;Keywords:&lt;/span&gt;&lt;span style=&quot;background-color: initial;&quot;&gt;&amp;nbsp;&lt;/span&gt;main deliverables, solution concept diagram, gaps, future state, target architecture, roadmap&lt;br&gt;&lt;/div&gt;" style="rounded=0;whiteSpace=wrap;html=1;fillColor=none;strokeWidth=3;shadow=0;connectable=0;allowArrows=0;verticalAlign=top;align=left;fontSize=16;spacing=0;spacingTop=25;spacingLeft=5;spacingBottom=5;spacingRight=5;movable=0;expand=0;resizable=0;strokeColor=none;" vertex="1" parent="BW7frF_x7rZ1pj5Z0zDM-46">
          <mxGeometry x="770" y="260" width="360" height="560" as="geometry" />
        </mxCell>
        <mxCell id="BW7frF_x7rZ1pj5Z0zDM-59" value="Rev?" style="rounded=0;whiteSpace=wrap;html=1;fillColor=none;strokeWidth=3;shadow=0;connectable=0;allowArrows=0;fontSize=16;align=right;spacing=0;spacingLeft=0;spacingRight=33;movable=0;expand=0;resizable=0;strokeColor=none;" vertex="1" parent="BW7frF_x7rZ1pj5Z0zDM-46">
          <mxGeometry x="1040" y="10" width="90" height="50" as="geometry" />
        </mxCell>
        <mxCell id="BW7frF_x7rZ1pj5Z0zDM-60" value="Date?" style="rounded=0;whiteSpace=wrap;html=1;fillColor=none;strokeWidth=3;shadow=0;connectable=0;allowArrows=0;fontSize=16;spacing=0;align=right;spacingRight=35;spacingLeft=0;movable=0;expand=0;resizable=0;strokeColor=none;" vertex="1" parent="BW7frF_x7rZ1pj5Z0zDM-46">
          <mxGeometry x="880" y="10" width="160" height="50" as="geometry" />
        </mxCell>
      </root>
    </mxGraphModel>
  </diagram>
</mxfile>
